<svg width="800" height="400" viewBox="0 0 800 400" fill="none" xmlns="http://www.w3.org/2000/svg">
  <rect width="800" height="400" fill="#F3F4F6"/>
  <path d="M0 0H800V400H0V0Z" fill="#E5E7EB"/>
  <path d="M400 200C400 310.457 310.457 400 200 400C89.5431 400 0 310.457 0 200C0 89.5431 89.5431 0 200 0C310.457 0 400 89.5431 400 200Z" fill="#9CA3AF"/>
  <path d="M200 150C172.386 150 150 172.386 150 200C150 227.614 172.386 250 200 250C227.614 250 250 227.614 250 200C250 172.386 227.614 150 200 150Z" fill="#E5E7EB"/>
  <path d="M200 100C155.817 100 120 135.817 120 180V200C120 244.183 155.817 280 200 280C244.183 280 280 244.183 280 200V180C280 135.817 244.183 100 200 100Z" fill="#9CA3AF"/>
  <text x="50%" y="350" text-anchor="middle" font-family="Arial" font-size="24" fill="#6B7280">Imagem não disponível</text>
</svg>
